<?xml version="1.0" standalone="no"?>
<!DOCTYPE svg PUBLIC "-//W3C//DTD SVG 20010904//EN"
 "http://www.w3.org/TR/2001/REC-SVG-20010904/DTD/svg10.dtd">
<svg version="1.0" xmlns="http://www.w3.org/2000/svg"
 width="600.000000pt" height="600.000000pt" viewBox="0 0 600.000000 600.000000"
 preserveAspectRatio="xMidYMid meet">
<metadata>
Created by potrace 1.11, written by Peter Selinger 2001-2013
</metadata>
<g transform="translate(0.000000,600.000000) scale(0.100000,-0.100000)"
fill="#000000" stroke="none">
<path d="M3760 5216 c0 -7 7 -30 16 -51 8 -21 13 -44 10 -52 -3 -8 1 -24 8
-36 23 -36 97 -347 98 -412 1 -80 -13 -145 -34 -159 -30 -19 -30 1 1 63 37 72
37 73 10 69 -31 -4 -81 -103 -73 -143 4 -16 11 -36 17 -43 8 -10 7 -16 -4 -23
-8 -5 -17 -9 -20 -9 -3 0 -11 -11 -18 -24 -12 -21 -10 -28 10 -55 36 -48 54
-37 54 32 0 47 4 62 20 73 17 13 21 13 32 -2 13 -18 66 -12 93 11 37 32 93 45
197 45 83 0 105 3 109 15 4 9 19 15 35 15 32 0 40 15 12 22 -10 2 -55 0 -100
-6 -102 -12 -160 -1 -155 29 5 28 41 63 111 110 33 22 61 46 61 53 0 17 -8 15
-37 -8 -14 -11 -32 -20 -39 -20 -7 0 -19 -8 -26 -18 -18 -25 -68 -38 -68 -17
0 8 -9 15 -21 15 -20 0 -21 7 -2 58 9 23 -6 12 -53 -38 -26 -27 -52 -50 -58
-50 -13 0 -46 55 -46 78 0 15 -19 90 -80 317 -12 44 -27 101 -32 128 -10 43
-28 65 -28 33z"/>
<path d="M3892 5180 c0 -14 2 -19 5 -12 2 6 2 18 0 25 -3 6 -5 1 -5 -13z"/>
<path d="M3421 4891 c-9 -6 -10 -11 -2 -15 16 -10 13 -51 -8 -134 -11 -40 -27
-139 -37 -220 -10 -81 -22 -152 -26 -159 -5 -6 -49 -15 -98 -19 -49 -3 -88
-10 -85 -14 3 -4 41 -9 85 -12 44 -3 83 -7 86 -11 3 -3 -1 -48 -9 -99 -9 -51
-21 -129 -27 -173 -22 -153 -187 -817 -215 -860 -10 -17 -32 -24 -104 -34 -50
-7 -91 -17 -91 -21 0 -9 51 -18 125 -22 29 -2 41 -8 43 -20 3 -16 -50 -206
-140 -503 -43 -144 -85 -262 -102 -288 -9 -12 -24 -58 -35 -102 -11 -44 -31
-125 -46 -180 -14 -55 -27 -129 -28 -164 l-2 -65 55 -17 c63 -20 77 -18 135
23 39 28 42 33 34 58 -7 18 -6 36 2 56 13 31 25 261 19 374 -4 77 26 239 85
460 12 47 28 108 34 135 7 28 23 87 37 133 l25 82 112 0 c151 0 238 27 208 64
-20 24 -108 38 -203 30 -96 -7 -99 -5 -78 52 6 15 15 59 21 98 14 108 62 290
102 391 25 65 37 114 42 175 5 56 20 124 46 202 22 65 39 136 39 158 l0 41
108 -3 c102 -3 109 -2 156 26 43 25 47 30 33 44 -13 12 -40 15 -142 14 -98 -1
-127 2 -131 13 -8 20 45 201 79 270 16 33 32 82 36 109 6 48 7 50 53 65 27 9
49 21 50 26 2 6 -13 18 -32 27 -38 19 -183 25 -209 9z"/>
<path d="M4067 4793 c-10 -9 -9 -23 2 -23 5 0 11 7 15 15 5 15 -5 20 -17 8z"/>
<path d="M4515 4770 c3 -5 15 -10 26 -10 10 0 19 5 19 10 0 6 -12 10 -26 10
-14 0 -23 -4 -19 -10z"/>
<path d="M5834 4376 c-37 -17 -59 -62 -46 -97 13 -32 36 -51 100 -83 58 -29
67 -43 58 -81 -11 -42 -62 -67 -121 -60 -27 4 -57 13 -66 21 -22 20 -47 18
-136 -11 -43 -14 -86 -25 -95 -25 -25 0 -70 64 -71 102 -2 28 2 33 23 36 58 7
145 34 163 50 11 9 28 34 39 55 19 37 19 40 2 58 -16 18 -27 19 -99 14 -44 -3
-90 -8 -103 -11 -22 -4 -82 -86 -96 -131 -15 -47 39 -161 94 -200 31 -22 98
-19 180 6 l64 20 23 -21 c32 -30 125 -36 173 -11 42 22 81 86 78 128 -3 27
-11 34 -86 70 -96 47 -111 64 -88 100 17 27 60 38 120 33 43 -3 56 11 31 36
-20 20 -97 21 -141 2z m-220 -89 c16 -25 -2 -35 -116 -63 -38 -9 -37 14 2 56
24 26 35 31 66 28 22 -2 41 -10 48 -21z"/>
<path d="M4169 4323 c0 -21 -15 -117 -33 -213 -34 -181 -34 -200 4 -220 16 -9
22 -6 36 21 8 17 18 66 21 108 7 106 37 193 82 242 42 43 72 49 121 24 17 -9
30 -18 30 -20 0 -3 -16 -65 -35 -138 -19 -72 -35 -141 -35 -152 0 -12 17 -34
42 -53 46 -36 50 -37 80 -21 21 11 21 12 -11 39 l-34 27 32 137 c29 125 30
140 17 161 -25 38 -82 58 -147 52 -54 -5 -58 -3 -61 16 -3 19 -11 22 -55 25
l-53 3 -1 -38z"/>
<path d="M4870 4327 c-31 -16 -50 -52 -50 -98 0 -80 -107 -229 -164 -229 -31
0 -47 21 -57 73 -5 30 -3 51 7 72 25 53 73 103 105 110 63 14 44 60 -21 51
-43 -6 -102 -67 -136 -141 -28 -59 -30 -95 -8 -141 35 -74 89 -90 189 -55 30
11 57 16 59 12 2 -3 -9 -101 -25 -216 -28 -208 -35 -264 -64 -566 -8 -86 -31
-239 -50 -340 -19 -101 -49 -256 -66 -344 -41 -216 -113 -499 -154 -610 -64
-169 -155 -370 -199 -435 -60 -90 -281 -344 -352 -405 -141 -121 -304 -206
-483 -251 -80 -21 -103 -23 -138 -14 -23 5 -55 10 -72 10 -17 0 -53 9 -81 20
-28 11 -64 20 -80 20 -27 0 -65 14 -157 57 -17 8 -34 24 -36 35 -4 14 -11 18
-24 14 -11 -3 -38 3 -60 14 -44 21 -64 41 -46 47 23 8 1 50 -33 62 -21 8 -34
19 -34 30 0 10 -9 26 -20 36 -11 10 -20 26 -20 36 0 10 -8 33 -19 51 -28 49
-34 84 -16 102 9 8 15 33 15 59 0 37 6 50 38 83 38 39 133 115 185 147 36 23
34 37 -5 37 -52 0 -209 -83 -278 -147 -91 -84 -105 -115 -104 -243 0 -112 9
-142 78 -268 22 -40 34 -51 47 -47 12 4 22 -1 29 -15 6 -11 17 -20 25 -20 8 0
27 -16 42 -35 16 -20 37 -35 49 -35 12 0 24 -7 28 -15 3 -8 12 -15 19 -15 8 0
25 -8 38 -19 59 -46 306 -96 469 -94 119 1 231 32 385 107 155 75 232 135 449
351 192 191 265 279 317 383 86 175 190 545 245 875 14 83 31 174 39 203 7 29
19 97 25 151 27 230 75 324 173 340 32 5 36 2 68 -43 28 -42 33 -57 32 -104
-1 -59 -31 -191 -58 -253 -13 -33 -14 -47 -5 -93 11 -53 13 -56 65 -80 42 -19
59 -22 79 -14 31 11 32 20 7 68 -30 58 -44 116 -37 158 3 22 11 82 18 134 l11
95 -30 60 c-49 96 -62 108 -117 107 -28 -1 -71 -12 -103 -27 -31 -14 -57 -25
-60 -25 -15 0 29 380 61 530 14 63 30 153 36 200 11 91 27 158 66 282 31 101
32 228 0 228 -6 0 -22 -6 -36 -13z"/>
<path d="M5005 4333 c-11 -3 -24 -10 -30 -15 -7 -7 -1 -9 17 -4 15 3 29 2 33
-4 3 -5 -6 -70 -20 -144 -15 -74 -25 -145 -23 -158 11 -75 189 -56 280 30 30
27 35 48 42 153 4 73 16 103 46 119 11 6 20 15 20 20 0 17 -51 11 -91 -12 -49
-28 -75 -81 -85 -173 -3 -38 -12 -82 -20 -96 -18 -35 -59 -61 -92 -57 -26 3
-27 5 -24 58 2 30 15 86 28 124 26 77 31 128 12 144 -17 13 -68 21 -93 15z"/>
<path d="M3850 4306 c-34 -13 -51 -38 -31 -50 5 -3 22 1 38 11 28 16 31 15 76
-12 26 -15 52 -36 58 -48 15 -27 7 -81 -21 -140 -24 -51 -41 -65 -137 -117
-73 -40 -103 -36 -140 19 -36 53 -32 116 12 181 32 48 37 70 15 70 -16 0 -80
-62 -96 -91 -18 -36 -18 -112 0 -148 8 -15 33 -44 55 -64 36 -32 47 -37 91
-37 70 0 116 22 184 88 61 60 136 192 136 240 0 27 -57 88 -97 103 -33 12
-101 10 -143 -5z"/>
<path d="M917 4304 c-4 -4 5 -20 18 -36 22 -26 25 -39 25 -103 0 -144 -121
-636 -220 -895 -22 -58 -60 -163 -86 -234 -90 -255 -314 -663 -403 -738 -17
-15 -54 -34 -83 -44 -94 -31 -128 -53 -151 -101 -25 -51 -20 -66 34 -100 19
-12 44 -31 56 -44 l23 -22 80 23 c101 29 120 49 120 130 0 52 4 63 38 107 91
116 228 351 300 514 47 108 137 352 147 401 4 18 31 107 60 198 30 91 61 206
70 255 9 50 32 151 50 225 18 74 36 158 40 185 12 86 27 110 81 129 103 35
114 17 84 -137 -23 -122 -54 -226 -79 -270 -18 -32 -13 -39 51 -58 48 -15 68
-7 68 28 0 35 23 149 56 269 13 49 24 100 24 112 0 46 139 116 161 81 17 -27
8 -71 -45 -232 -30 -89 -58 -185 -61 -213 l-7 -51 45 -26 c52 -31 79 -34 98
-11 12 15 11 19 -9 32 -34 22 -32 139 4 225 17 42 29 97 37 171 l11 108 -24
20 c-31 25 -100 20 -166 -13 l-45 -21 -20 26 c-17 22 -28 26 -72 26 -29 0 -68
-4 -86 -10 -19 -5 -36 -8 -39 -6 -2 3 7 19 20 36 l23 32 -24 19 c-19 15 -39
19 -110 19 -48 0 -91 -3 -94 -6z"/>
<path d="M2505 4250 c-16 -5 -55 -25 -85 -44 l-55 -35 -20 24 c-26 30 -57 45
-94 45 -37 0 -40 -12 -6 -34 42 -28 47 -48 30 -130 -9 -41 -29 -107 -45 -147
-34 -82 -41 -167 -14 -193 20 -21 30 -20 53 3 24 24 37 69 51 186 7 50 14 104
16 121 8 58 74 117 166 150 35 12 44 12 73 -2 36 -17 86 -16 92 2 6 18 -50 53
-93 58 -21 3 -52 1 -69 -4z"/>
<path d="M2805 4221 c-58 -14 -154 -81 -177 -124 -34 -63 -26 -157 19 -216 27
-35 208 -131 249 -131 28 0 114 56 114 75 0 29 -49 38 -116 20 -58 -16 -62
-15 -117 5 -63 24 -97 59 -97 101 0 43 24 59 86 59 57 0 115 19 146 47 27 24
61 142 47 159 -12 15 -101 18 -154 5z m85 -74 c0 -13 -15 -41 -33 -62 -29 -33
-40 -39 -92 -46 -33 -4 -61 -7 -62 -5 -10 10 57 82 100 106 64 37 87 38 87 7z"/>
<path d="M3616 4214 c-4 -11 -1 -14 11 -12 9 2 18 9 21 16 6 18 -25 15 -32 -4z"/>
<path d="M3825 4199 c-8 -26 16 -54 39 -46 19 7 21 38 4 55 -18 18 -36 14 -43
-9z"/>
<path d="M1863 4184 c-24 -14 -43 -31 -43 -39 0 -23 42 -45 87 -45 23 0 61 -7
83 -16 40 -16 40 -17 40 -68 0 -68 -24 -147 -57 -186 -28 -34 -99 -73 -150
-84 -45 -10 -117 23 -143 66 -37 62 -19 185 40 267 27 36 28 42 14 48 -30 11
-109 -99 -124 -172 -22 -105 7 -172 90 -213 89 -44 147 -38 268 24 113 59 131
80 168 199 25 81 25 83 7 117 -10 19 -33 52 -50 73 -27 33 -40 40 -85 46 -85
12 -101 10 -145 -17z"/>
<path d="M3900 4195 c-11 -13 -11 -19 3 -33 20 -19 41 -5 35 24 -4 24 -22 28
-38 9z"/>
<path d="M3409 3935 c-12 -19 -30 -40 -40 -46 -25 -13 -25 -49 0 -49 11 0 21
9 25 23 3 13 17 36 31 51 27 29 31 41 15 51 -5 3 -20 -10 -31 -30z"/>
<path d="M4390 3562 c0 -58 -50 -314 -66 -339 -10 -16 -34 -26 -90 -39 -87
-19 -84 -27 19 -45 66 -12 69 -14 64 -38 -20 -121 -77 -347 -113 -452 -35
-101 -43 -133 -34 -148 27 -52 112 -71 126 -28 4 12 8 78 9 147 1 69 7 139 13
155 6 17 20 88 32 158 21 134 37 179 69 197 11 5 51 10 90 10 88 0 101 5 101
41 l0 29 -94 0 c-87 0 -95 2 -101 21 -13 39 6 107 56 207 27 55 52 113 55 131
l7 31 -72 0 -71 0 0 -38z"/>
<path d="M1347 3463 c4 -30 -7 -77 -41 -189 -26 -82 -51 -153 -55 -157 -5 -5
-40 -15 -77 -23 -37 -8 -70 -17 -73 -19 -2 -3 28 -5 67 -5 39 0 73 -3 75 -7 8
-14 -96 -329 -148 -453 -39 -91 -115 -301 -115 -317 0 -17 56 -45 83 -41 28 4
47 42 47 98 0 25 5 62 11 84 6 21 14 59 19 85 12 67 102 346 133 415 15 32 27
68 27 80 0 12 5 27 12 34 14 14 100 16 146 2 47 -13 114 13 110 43 -4 28 -59
40 -160 34 l-78 -4 0 29 c0 34 69 203 111 271 36 59 31 69 -45 75 l-54 4 5
-39z"/>
<path d="M1705 3451 c-2 -5 -22 -102 -44 -217 -40 -210 -114 -487 -171 -642
-16 -45 -30 -89 -30 -96 0 -8 13 -19 29 -24 39 -14 48 -3 67 87 8 40 19 80 24
89 5 9 16 43 26 74 22 74 69 140 97 136 12 -2 32 -19 45 -38 20 -29 23 -44 19
-95 -2 -33 -13 -95 -25 -138 -25 -92 -20 -111 35 -126 48 -13 58 -3 43 43 -9
27 -8 40 1 58 14 26 39 157 39 209 0 28 -9 45 -38 77 -44 47 -70 52 -142 27
-24 -8 -45 -14 -47 -12 -8 8 80 404 103 465 36 92 36 113 2 123 -16 4 -30 4
-33 0z"/>
<path d="M3856 2980 c-30 -6 -54 -22 -103 -73 -62 -63 -63 -66 -63 -119 0 -79
24 -137 76 -189 43 -42 46 -44 118 -47 83 -5 155 19 176 57 18 34 -12 37 -85
7 -76 -30 -126 -33 -147 -8 -23 27 -59 119 -52 136 3 9 22 18 42 21 21 3 50 8
66 11 87 13 161 147 110 198 -16 17 -70 19 -138 6z m94 -63 c0 -27 -60 -94
-97 -108 -13 -5 -36 -9 -49 -9 -22 0 -24 3 -19 23 11 37 40 71 81 94 53 31 84
30 84 0z"/>
<path d="M3375 2957 c-51 -29 -139 -156 -149 -216 -11 -71 2 -110 53 -161 49
-49 118 -80 178 -80 36 0 101 29 122 54 11 13 -1 14 -97 13 -125 -2 -143 6
-164 74 -14 49 -1 67 47 66 26 -1 52 11 102 46 107 73 123 91 123 140 0 55 -9
67 -56 77 -65 15 -116 11 -159 -13z m139 -80 c-14 -46 -135 -147 -176 -147
-22 0 -19 18 15 90 17 35 33 51 75 72 42 22 58 26 73 17 15 -7 18 -16 13 -32z"/>
<path d="M2040 2844 c-79 -72 -141 -251 -108 -314 32 -60 163 -81 229 -36 31
21 37 22 54 10 22 -17 65 -19 65 -3 0 6 -9 22 -20 36 -18 23 -20 41 -20 179
l0 154 -25 0 c-14 0 -28 -6 -30 -12 -3 -7 -9 -66 -14 -130 -11 -141 -34 -200
-88 -226 -31 -15 -37 -15 -61 -2 -53 30 -56 123 -8 218 31 61 98 142 118 142
4 0 8 5 8 10 0 6 -13 10 -30 10 -20 0 -43 -12 -70 -36z"/>
<path d="M2344 2865 c-18 -15 -18 -15 7 -9 24 5 27 2 33 -28 7 -41 -6 -129
-34 -232 -12 -44 -18 -82 -13 -87 5 -5 22 -11 39 -15 l31 -6 5 90 c4 73 11
103 35 154 35 73 76 121 101 116 9 -2 23 -17 31 -33 13 -27 12 -38 -8 -115
-42 -153 -40 -180 8 -200 42 -17 50 -8 38 39 -9 34 -7 52 11 108 12 37 24 85
28 106 7 43 -10 93 -37 107 -33 18 -94 11 -132 -14 l-35 -24 -21 29 c-24 32
-56 37 -87 14z"/>
<path d="M3349 1529 c-80 -39 -118 -66 -215 -156 -66 -59 -137 -122 -159 -139
-34 -28 -38 -34 -26 -48 18 -22 30 -20 52 7 10 13 39 32 64 41 38 15 44 20 34
32 -29 35 122 121 266 154 128 29 152 38 158 60 3 11 17 24 32 30 21 8 26 15
23 38 -3 26 -5 27 -68 27 -58 1 -76 -4 -161 -46z"/>
</g>
</svg>
