<svg id="logo" xmlns="http://www.w3.org/2000/svg" viewBox="0 0 1714.69 1313.48"><title>logo</title><style>*{fill:white;stroke:white;}</style><path d="M834.4,1196.09c8.33-23.52,13.21-38.85,21.76-62.24,4.79-13.1,10.62-25.53,15.09-38.8,9.46-28.08,24.18-76.7,32.48-110.33s14-68.45,17.64-81.87c3.74-13.78,4.76-27.69,5.42-41.75.37-7.88-2.1-16.88-2.69-24.71-.15-2-2.41-3.84-3.93-5.42-2.51-2.62-5.21-5-7.83-7.44l.45-2.55c5.33-1,10.68-2.83,16-2.83,10.84,0,21.68.7,32.48,1.66,3.33.29,6.69,1.91,9.75,3.65,6.52,3.72,7.3,9.83,2.06,16.33-3.15,3.91-6.8,7.19-9.64,12.44a59.49,59.49,0,0,0,7-2c11.6-4.77,23.6-6.38,36.09-6.37,11.21,0,15.61,6.62,19.91,14.33.91,1.64,2.3,2.93,3.25,2.83,3-.31,6.58-5.08,11.42-7.3s22-9.3,36.81-8.29c12.48.85,17.66,8,17.68,19.69,0,13.35-4.22,26-4.82,39.07a45.19,45.19,0,0,1-.32,6.57c-4,20.62-15,32.25-16.9,51,4,9.09,1.52,17.9.95,26.81-.32,5,.08,8.37,6,10.15,5.3,1.61,6.77,10.8,1.86,13.12a23.53,23.53,0,0,1-14.62,1.25c-7-1.78-11-9.1-19.21-10.3-2.4-.35-5.68-6.69-5.39-10,.77-9,2.84-18,5.13-26.86,2.92-11.26,6.29-22.43,10-33.49,3.89-11.71,8.61-23.17,12.54-34.86,3.83-11.39,7.84-22.8,6.07-35.13-1.2-8.34-2.95-10.25-11.33-9-5.08.77-10,3-14.78,4.94-2.07.84-3.53,2.95-5.56,4-10.59,5.31-18.54,12-17.63,24.92.57,8-4,16.62-6.48,24.89-3.67,12.41-7.63,24.57-7.86,38.17-.11,6.27-3.65,12.35-5,18.72-1.1,5.32-2,11-1.58,16.38.76,9.89-6,17.5-13.73,13.93-4.8-2.21-17.52-5.83-23.15-8.9-6.12-3.35,3.29-8.11,5.2-14.5,2.84-9.52,4.83-13,8.2-22.7,7.9-22.77,10.61-50.9,16.12-73.28a9.51,9.51,0,0,0,.14-1.89c.8-22.12-8.17-21.12-26.78-15-7.16,2.34-13.21,2.09-18.18,11.37-6.92,12.93-6.19,22.81-8,34.2-3,19.12-11.13,45.83-17.24,72.86s-4.11,21.35-8.11,41.1-5.39,27.65-14.29,54.23c-6,13.29-18.63,54.78-21.39,68.51-2.43,12.07-22.63,65.38-25.11,73.49s-22.53,54.42-28.35,67-17.66,29.85-25.61,45.65c-13.71,27.25-29.23,52-47.14,74.09-6.25,7.72-14,15.42-13.86,29.26.08,6.33,2.25,13.2.9,18.73-1.19,4.87-6,8.19-9.13,12.24-.8,1-1.38,3-2.23,3.28-14.48,4.39-29,8.75-43.5,12.69-3.5.95-8.17,2.74-7.25-6.81.1-1.07-3.5-3.33-5.57-3.89-8.69-2.37-15.93-8.61-23.27-14.82-3.88-3.28-4.35-7.72-2.62-12.61a98.34,98.34,0,0,1,8-17.8c1.93-3.19,5.3-4.9,8.2-6.68,1.87-1.15,4.41-.46,6-2,5.77-5.34,5.81-4.46,9.95-5.73a224.29,224.29,0,0,0,29.73-11.16c19.61-9.22,30.42-33.58,44-52.91C774.91,1324,788,1297.07,801,1270c11.63-24.24,24.11-47.65,33.41-73.89" transform="translate(-651.66 -536.68)"/><path d="M1554.41,812c15.91-1.45,31.81-2.93,47.72-4.34,5.45-.48,8-2.65,8.71-8.74,3-26.51,6.17-53,10.2-79.44,2-12.8,5.93-25.4,9-38.09.47-2,.77-4,1.1-5.94,1.42-8.54,3.38-17.27-6.87-22.33,28.18-3.71,55.88-8.4,79.26,11.55-8.39,2.66-16.47,5.47-24.67,7.74-9.24,2.57-9.78,3.76-9.59,12.85.19,8.83-.81,17.26-6.47,25.7-4.41,6.57-13.66,28.47-15.25,36.49-1.66,8.38-12.28,37-12.13,48.58.07,5,6,6.39,10,6.18,11.64-.61,23.31-1.71,34.91-1.62,10.18.08,20.31,1.33,30.39,2.51,2.26.27,4.51,2.11,6.14,3.82.55.58-.37,3.77-1.44,4.47-7.25,4.76-14.4,9.93-22.21,13.42-4.88,2.18-10.93,2.4-16.33,2.19-12.18-.47-24.33-1.48-36.4-2.82-6-.67-5.48-.85-10.23,1-1.37,4.13-.95,16.82-1.89,22-.45,2.5-11.33,40.52-18.13,55.85s-3,47.81-11.14,71.27c-1.33,3.85-15.94,34.5-21.79,59.54s-9.63,41.62-11.5,51.3-3.22,27.47-5.24,34c-2.16,6.95-4.46,13.85-6.43,20.85-1.51,5.36.26,6.19,5.31,5.64,8.53-.93,17.07-1.74,25.61-2.51,13.92-1.25,27.73-.59,41.28,3a26.09,26.09,0,0,1,9,4.1c2.1,1.59,5,5,4.46,6.58-.95,2.75-3.89,6.07-6.6,6.76-14.14,3.6-27.53,10.3-43.27,6.91-9.77-2.1-20.36-.32-30.57-.46-4.41-.06-12.41-1-13.54,3-2.87,10.25-15.13,50.11-17.33,58-2.09,7.47-3.53,21.55-6.67,31.46s-8.14,26.39-10.14,35.83-14.84,60.37-13.48,65.23c3.28,11.65-3.09,21.21-5.07,31.63-.9,4.73-1,7.86,1,12.64,2.91,6.85,5.38,15,1.89,22.9-.54,1.22-1.52,3.57-1.52,3.57s-3.44,23-1,35.44c2.41,12.33.48,27-4.19,38.73-3.3,8.33-2.5,13.59.93,20.13,1.81,3.45.79,6.22-2.41,7.35-6.93,2.44-12.42,6.8-17.91,11.45-8.35,7.06-17.66,4.35-26.77,1.73-4.37-1.26-8.57-3.26-13-4.14-5.67-1.13-7.62-3.8-7.13-9.69a360,360,0,0,1,17.72-84.42c2.5-7.48,3-15.6,5.12-23.23,3.4-12.34,5.93-24.8,13.35-36,5.27-8,7.59-18,10.82-27.2,3.7-10.6,7.73-21.19,10.18-32.11,3.42-15.25,10.71-29.13,13.87-44.59,2.22-10.84,23.78-84.25,31-105.48a23.91,23.91,0,0,0,1-5.81c.76-9.73-1.32-11.57-11.08-10.63-13.63,1.31-26.54-2-39.37-5.6l-.16-2.55c7.58-1.3,15.15-2.71,22.75-3.85,7.21-1.09,14.45-2.66,21.68-2.67,11.33,0,15.27-7.7,17.83-16.24,5.1-17,9.37-34.26,14.11-51.38,3-10.75,6.38-21.38,9.22-32.16,1.24-4.72,1.22-9.76,2.36-14.52,3.94-16.42,8.25-32.76,12.22-49.17,9.12-37.74,19.08-75.76,22.64-114.73,1.39-15.21,4.86-30.33,7.36-45.49,1.21-7.35.47-8.62-7.11-9.26-12.51-1.06-25.08-1.67-37.61-2.59a45.14,45.14,0,0,1-6.39-1.38Z" transform="translate(-651.66 -536.68)"/><path d="M1878.47,1348.94c-4.18.62-9.42,1.53-14.69,2.09-1.83.2-4.21.18-5.47-.82-5.26-4.17-10.84-8.22-15-13.37-2.75-3.4-2.9-7.81-.77-13.42,8.63-22.78,16.52-45.87,23.4-69.16,4.56-15.43,7.13-31.37,10.23-47.13,3-15.39,7.67-31.08,10.91-46.43.91-4.32-9.71-4.57-13.15-5.35-11-2.49-30.92-6-35.11-8.76,5.35-3.39,22.46-5.42,32.45-7.9,3.57-.89,7.53-1.26,10.54-3.16,3.43-2.17,7.95-5.47,8.63-8.8,6.17-29.82,11.79-59.73,17.06-89.68.8-4.56-1-9.45-1.8-15.38,11-.17,23.4-.57,35.76-.44,4.56,0,7.31,2.16,5.28,7.82-3.28,9.13-5.82,14.25-8.82,23.47-.62,1.92-5.78,10.61-10.82,18.83s-18.41,38.27-13.92,55.67c2.38,8.67,7,6.17,14,5.5s20.67-.43,31-.47,12.78,2.76,11.34,13c-.62,4.47-2.63,6.84-7,7.05-7.86.39-27.85-.33-43.14,2.55-10.6,2-11.8,6-13.5,9.5a75.67,75.67,0,0,0-7.75,28.58c-.35,4.5-4,18.75-4,21.29,0,4.45-1.28,8-1.72,11.89s-3.19,23-5.06,28.57a95.94,95.94,0,0,0-6.11,24.45c.7,14.48,1,29,1.29,43.51,0,2.26-1,4.57-1.36,6.88C1880.24,1335.57,1879.44,1341.79,1878.47,1348.94Z" transform="translate(-651.66 -536.68)"/><path d="M966,1170.64c12.64-2.44,25.24-5.06,37.92-7.25,5.32-.92,8.09-3.59,9-8.8,2.86-16.39,12-38.48,16.2-53.32,1.17-4.09,2.33-8.21,3.83-12.14,4-10.36,5.69-21.42,3-33.65-1-4.66.43-5.69,4.64-5.26,7.43.75,14.81.85,22.26,2,8.27,1.26,10.09,4.56,6.57,10.6-5.34,9.16-11.18,18-15.85,27.57-5.2,10.65-9.52,21.86-13.76,33.07-.87,2.3-6.43,12.15-6.79,15-.45,3.59-.46,7.29-1.35,10.76-2.43,9.45-2.54,9.73,7.69,8.68,16.53-1.7,33-2.39,49.56.53,5.22.92,10.8,2,12.53,8.3.41,1.49.13,4.34-.77,4.82-8.94,4.67-16.5,11.91-28.85,8.22-10.94-3.27-22.82-3.33-34.3-4.51-7.84-.8-14.4,4.8-14.17,12.9.24,8.37-2.84,14.76-6.62,22.05a201.77,201.77,0,0,0-16.67,44c-2,8-3.95,15.63-7.2,23.25-3.44,8.06-4.63,17.09-7.22,25.56-1.71,5.61-4.13,11-6.26,16.45-.47,1.2-1.53,2.37-1.48,3.53.63,14.94-6,28.3-8.38,42.54-1.25,7.38-.8,15.05-1.56,22.54a41.62,41.62,0,0,1-2.81,12.4c-3.47,7.89-10.91,10.09-18.63,6.19-16.57-8.36-16.77-8.44-10.6-26.08,6.95-19.86,14-39.71,21.56-59.33,6.15-15.94,14.88-31,19.31-47.42a413.17,413.17,0,0,1,17.52-51.24c5.39-12.91,8.51-26.27,12.24-39.55,2.3-8.17,1.83-8.5-7.3-8.89l-33.61-1.43Z" transform="translate(-651.66 -536.68)"/><path d="M1116.4,1233.78c10.62-3.25,19.52-7.21,28.8-8.52,12-1.7,22.77,1.81,29,13.81,1.6,3.06,4.21,5.61,6.43,8.33,7.61,9.3,2,19.2,1.16,28.81-.49,5.7-2.79,11.27-3.05,17-.38,8.13-1.46,15.66-6.07,22.73-4.27,6.54-3.85,13.61-.24,20.74,1.48,2.92,2.82,7.23,1.7,9.83-1.76,4.12-6,3.2-10.31,2.31-18.62-3.91-21.69-7.48-17.92-26.39,2.32-11.63,6-23.06,9.79-34.31,5.82-17.12,3-33-6.68-47.51-6.75-10.09-11.3-11.38-20.24-1.94-11.44,12.08-17.1,26.44-21,42-1,4.18-1.54,8.8-3.7,12.35-5.16,8.49-6.52,17.67-7.74,27.25-1,7.63-3.65,15.12-6.26,22.43-.65,1.82-4.08,4-6,3.75a40.79,40.79,0,0,1-12.28-3.8c-4-1.85-4.37-5.5-3-9.41,6.92-19.39,14.26-38.65,20.6-58.23,5.5-17,9.82-34.38,14.75-51.57,3.56-12.43,7.32-25.58,10.6-38,4.06-15.36,6-31.26,9.07-46.9q7-36.07,14.25-72.09c.23-1.17,1.06-3.25,1.47-3.21,5.12.45,10.87,0,15.12,2.28,3.47,1.86,4,6.87,1.87,11.62a272.3,272.3,0,0,0-11.31,28.25c-3.78,11.56-7,23.34-9.73,35.19-2.6,11.27-3.88,22.84-6.46,34.11-3.1,13.54-5.56,27-8.18,40.68C1119.82,1221.33,1118,1227.21,1116.4,1233.78Z" transform="translate(-651.66 -536.68)"/><path d="M1153.09,874c-10.24,9.78-18.48,21-22.15,34.56-2.82,10.49-6.32,21.55-5.54,32.06.8,10.73,3.88,23,13.05,30,7,5.37,16.55,9.66,25.23,10.21,12.57.8,24.3-5,35.62-11.11,21.4-11.47,28.46-31.11,31.89-53,1-6.54,1.44-13.18,1.82-19.79.25-4.22-1.25-7.53-5.4-9.78a72.21,72.21,0,0,0-38.62-8.69,14.77,14.77,0,0,1-5-.69,53.58,53.58,0,0,1-6.78-3.37c-1.43-.85-4.52-3.14-4.52-4.87,0-3.07-2.89-7.09,2.36-9.45,8.12-3.65,19.81-11.85,26.4-13,11,1,22.51,5.15,26.9,5.15,11.53-3.13,16.25,5.75,22.2,12.5a61.07,61.07,0,0,0,5,4.39,14.52,14.52,0,0,1,4.38,8.08c.46,3.33,1.54,5.94,2.33,6.57,7.3,5.84,6.23,14.15,4.24,21-4.49,15.44-9.12,31.23-16.74,45.22-4.18,7.68-14,13-22.29,17.51-7.87,4.29-15.42,9.23-23.52,13-17.68,8.3-35.86,13.64-55.32,5.84-4.62-1.85-9.27-3.64-13.87-5.54-18.19-7.49-23.87-22.86-24.88-40.68a71.82,71.82,0,0,1,1.86-19.8c2-8.55,3.78-17,10.71-24,5.66-5.67,8.67-13.91,13.47-20.56C1140.16,869.93,1145.41,869.61,1153.09,874Z" transform="translate(-651.66 -536.68)"/><path d="M2346.59,795.8c8.57-.09,13.2,2.76,16,10.46.7,1.92.56,4.93-.55,6.46-.77,1.06-4.18,1.18-5.86.46-13-5.62-30.12-2.27-37.07,3.78s-8.36,15.85-.79,20.76c6.32,4.1,13.61,6.73,20.51,9.93,7.5,3.48,15.24,6.51,22.45,10.51,2.35,1.31,4.48,4.93,4.73,7.68.45,4.86.77,10.54-1.28,14.67-6.1,12.23-12.26,24.26-27.68,28.5-16.8,4.61-36,3.52-45.88-9.87-1-1.3-4.1-2-5.83-1.55-9.74,2.68-19.23,6.34-29,8.69-30,7.18-40.35,3-56.15-22.79a77.86,77.86,0,0,1-8.7-20c-2.29-8.41-2.13-17,3-25s9.33-16.11,14.57-23.77c2.38-3.48,12.44-7.61,14-7.47a104.22,104.22,0,0,0,16.47-.22c7.26-.5,14.5-.22,21.51-2.07,6.76-1.78,11.28,2.41,16.18,5,2,1,3.82,6.43,2.82,8.3-5.83,11-9.56,24.19-22.51,29.2-9.48,3.67-19.64,5.63-29.58,8-3.18.76-6.63.35-9.94.65-8.28.76-10.19,2.81-8.58,10.73,2.55,12.52,10.1,22,20,29.6,1.63,1.24,5.17.92,7.46.18,10.41-3.37,20.64-7.29,31-10.71a137.81,137.81,0,0,1,15.26-3.82c6.73-1.39,12.14-.6,16.08,5.36.86,1.3,2.88,2.15,4.52,2.54,3.84.9,7.93.9,11.63,2.14,6.32,2.12,12.28.93,18.26-.85,12.59-3.74,17.45-10.71,18.26-24.13.34-5.55-3.76-8.35-8.64-10.81-6.23-3.14-11-4.73-17-8.14s-12-7.35-16.35-12.47c-11-13-4.11-32.83,12.44-37.17,4.15-1.09,8.43-1.64,12.65-2.44C2335,796,2343.28,795.84,2346.59,795.8Zm-89,30.8c-.65-2.73-1.76-4-4.84-5.89-5.58-3.5-21.53-3.12-29.7,7.21-2.46,3.11-4.62,6.46-6.79,9.78a54.49,54.49,0,0,0-2.58,4.9c2,.7,4.26,2.3,6.09,1.94,6.46-1.27,12.72-3.67,19.2-4.77C2247.12,838.39,2259.6,835.14,2257.57,826.6Z" transform="translate(-651.66 -536.68)"/><path d="M1477.43,843.48c3.46-.23,8.06-.73,12.65-.78,5.68-.06,10.76,4.92,9.39,9.79q-4.74,16.78-10.66,33.22a16.26,16.26,0,0,1-6.05,7.35c-10.47,7-21.47,12.48-34.83,10.93-5.5-.64-11.18.06-16.77.35-6.36.33-10,4.19-12.08,9.86-3,8.33-1,23.9,10.77,30a167,167,0,0,0,30.09,11.72c3.82,1.11,8.89-1,13.1-2.53,11.35-4,22.66-6.54,34.52-2.22,5.32,1.94,6.54,4.62,4,9.55a4.43,4.43,0,0,1-1,1.66c-6.77,4.73-13.23,10.06-20.48,13.92-8,4.23-16,2.62-24.37-1.1-14.66-6.52-29.45-12.45-43.34-20.81-24.22-14.56-30.58-41.89-23.67-66.12,1.93-6.78,8-12.61,12.88-18.24,3.61-4.16,8.49-7.19,12.68-10.87C1439.2,845.94,1456.89,841.87,1477.43,843.48Zm-54.31,55.26c9.48-1,17.44-2,25.43-2.66a24.66,24.66,0,0,0,17.86-9.36,110.25,110.25,0,0,0,11.29-17.28,11.36,11.36,0,0,0,.24-9c-.58-1.23-5.47-1.27-8.07-.57C1449.26,865.47,1434.18,878,1423.12,898.74Z" transform="translate(-651.66 -536.68)"/><path d="M1282.45,943.21c8.18-17.13,15.58-36.53,19.3-55.32,1.26-6.34,2.2-12.81,3.05-19.27,1.6-12.22-6.14-17.24-16.71-23.21-1.73-1-3-2.7-4.55-4.07,2-.71,4-1.92,6-2.05,14.69-1,27.4,2.44,34.67,16.79,2.33,4.6,4.65,2.88,7.76.75,8.12-5.57,16.19-11.34,24.81-16a50,50,0,0,1,41.08-3.45c5.85,2,10.64,7.32,15.6,11.5.72.61.29,4-.7,5-4.22,4.13-14.81,4.41-20.28,1-.28-.17-.6-.28-.88-.45-10.17-6-12.8-5.46-16.77-4.94-3.33.43-12,3-20.71,8-8.21,4.69-20,11-25.42,17.24a46.16,46.16,0,0,0-9.84,18.52c-5.32,22,.47,30.11-6.1,51.26a58.56,58.56,0,0,0-2.15,12.43c-.85,10.45-3.92,19.5-11.25,26.77a13.67,13.67,0,0,1-10.24,3.34c-6.89-1.05-9.32-13.32-9.62-20.33,0-1,0-2,0-3C1279.09,963.5,1279.74,948.87,1282.45,943.21Z" transform="translate(-651.66 -536.68)"/><path d="M1874,818.79c9.94-.91,19.07-2.38,28.21-2.43,12.28-.06,22.56,5.82,30.76,14.43,2.71,2.84,4.45,8.62,3.66,12.44-4.57,22.28-9.91,44.4-15.24,66.51-2.23,9.27-1.81,10.75,6.6,14.45.91.4,1.8,1,2.68,1.29,3.35,1.22,5.35,2.72,6.92,7.47a18.76,18.76,0,0,1-10.56,5.38c-5.71.9-11-1.2-15.26-5.7a53.2,53.2,0,0,0-8.92-7.9c-6.54-4.39-6.26-10.55-4.68-16.82,4.35-17.27,9-34.46,13.58-51.67,1.36-5.11,2.79-10.22,4.43-15.25,3-9.19,2.69-9.37-5.22-14-8.76-5.08-18.3-5.07-27.09-2.61-5,1.38-9,7.27-12.62,11.78-3.5,4.34-6.14,9.42-8.81,14.37a29.6,29.6,0,0,0-2.85,8.22,47.73,47.73,0,0,1-4.74,12.42c-2.73,5.41-2.67,12.42-3,18.78-.9,15.59.44,31.49-7.81,45.85-3.85,6.71-6.09,6.46-12.28,2.2-10.67-7.34-6.28-16.89-4.73-25.74,5.3-30.31,11.16-60.52,16.7-90.79.59-3.23,1.36-6.87.45-9.84-1.88-6.12.64-7.88,6-7.59,6.31.35,12.65.66,18.88,1.6C1875.35,806.66,1876.06,808.95,1874,818.79Z" transform="translate(-651.66 -536.68)"/><path d="M1677.91,1221.79c.19,5.13,2.37,14.61-7.06,21.3-9.61,6.82-18.1,15.42-28.2,21.31s-18.86,15.94-33.05,13c-7.07-1.45-12.14,3.63-11.45,11,1,10.53,3.84,19.8,14.53,26.13,14.23,8.42,28,6,42.48,2.72,5.53-1.24,11.33-1.48,17-1.74,1.66-.08,4.55.32,5.08,2.09.46,1.55-1.54,3-2.73,4-8.29,6.92-18.14,12.09-28.2,14.23-8.46,1.8-18.63.15-27-2.91-16.07-5.91-30.11-15-40.44-29.82-10.21-14.61-6.53-45.12,2-56.13,7.44-9.65,13.64-20.26,20.48-30.38a15,15,0,0,1,3.88-4.1c5.59-3.72,11.17-7.52,17.07-10.69a20.86,20.86,0,0,1,9.71-2.4c8.47.11,17,.23,25.35,1.62,6.11,1,15.35,2.64,17.81,6.18S1677.72,1216.66,1677.91,1221.79Zm-72.73,48.3c10.53.06,17.81-6.56,25.17-12.35,10.28-8.09,21.74-15.4,25.75-29.14,2.22-7.6.81-10-6.78-10.91a16.32,16.32,0,0,0-7.05.63c-12.39,4.34-26.39,12.76-31.77,23.81s-5.39,15.29-9,22.46C1598.68,1270.11,1601.28,1270.23,1605.18,1270.09Z" transform="translate(-651.66 -536.68)"/><path d="M1795,1202.17c2.08,4,2,8.84,2.38,12.4,1,10.1-4.39,20.72-11.2,28-7.95,8.51-16.62,15.93-29.77,15.66-6.7-.14-13.49,2.06-20.19,3.43a8.62,8.62,0,0,0-6,11.79,342.86,342.86,0,0,0,13.93,31.75c3.35,6.58,14.38,8.32,24.37,4.86,11.65-4,21.78-8,33.14-13.17,3.68-1.69,7.82-4,10.87,0,2.84,3.72.3,6.8-2.58,10.21-14.92,17.59-46.37,18.85-68.11,12-5.31-1.68-9.82-6.52-14.19-10.47-15.85-14.32-21.52-33.44-22.54-53.7-.6-11.77,4.63-22.55,13.78-30.86,4.64-4.22,8.91-8.84,13.53-13.09,6.16-5.67,11.64-11.85,21.48-11.92,8.45-.06,15.32-3.4,23.23-3.32S1793,1198.15,1795,1202.17ZM1782,1217c-.13-2.87-2.62-5.35-4.58-6.24s-7.56.19-9.74,1.14c-10,3.14-21.46,8.41-29.2,20.21a58.26,58.26,0,0,0-4.72,10.65c-.84,2.11-1.56,4.26-2.33,6.4,2.7.49,11,2.42,13.35,1.75a53.16,53.16,0,0,0,31.15-23.07C1778.05,1224.57,1782.23,1221.6,1782,1217Z" transform="translate(-651.66 -536.68)"/><path d="M2072,816.26c10.63-4.91,21.4-6.16,32.68-1.75,4.17,1.64,5.93,3.8,6.65,8.55,2,13.39-1.73,25.77-7.08,37.24-6.95,14.91-7.64,30.37-8.18,46.13-.13,3.87,1.67,5.18,5.39,5.36,14.12.67,30.44-12.61,32.42-26.83,1.92-13.78,2.91-27.71,5.49-41.35,3.52-18.55,24-34.22,42.88-33.63,1.86.06,3.66,1.73,5.49,2.65-1.11,1.39-1.95,3.22-3.37,4.09-8.38,5.14-15.64,11.13-16.72,21.74-.36,3.57.35,7.24.11,10.83-.75,11.16-1.07,22.42-2.92,33.41a25.34,25.34,0,0,1-7.69,13.48c-15.91,14.37-34.56,23.23-56.33,23.53-5.81.08-11.85-1.74-17.43-3.7-6.91-2.43-10.31-9.36-8.9-16.81q6.82-36.19,13.89-72.34c1.64-8.37,0-10.19-8.26-8.86-2.56.41-5.15.63-7.73.93Z" transform="translate(-651.66 -536.68)"/><path d="M1727.73,942.9a24.87,24.87,0,0,1-18.21-5.12c-11.17-8.18-21-17.71-25.43-31.18-6.38-19.54,2.14-41.7,20.45-55.22,2.4-1.77,4.71-3.87,7.4-5,2-.83,5.3-1.26,6.68-.17,2.42,1.91,2.07,4.12-.29,7.39-6.62,9.16-14.95,18.57-17.2,29-3,14.2-.23,29.35,10.57,41,7.77,8.41,18.35,9.44,27.67,2.56,11.16-8.24,26.42-12.27,36.68-21.56,9.87-8.93,13.43-24.2,18.35-36.72,3-7.69,2.63-13.75-3.4-21.56s-14.88-10-21.79-15.54c-4.63-3.71-11.58-2.44-17.35,2.25s-10.3,3.79-12.11-1.43c-.64-1.85.25-5.74,1.67-6.54,10.29-5.86,24.69-9.22,33.36-9.82a22.24,22.24,0,0,1,3,.09c9.36,1,25.83,4.91,33.26,17.73a6.21,6.21,0,0,0,2.88,2.65c8.62,3.12,8.15,9.58,6.26,16.58-2.8,10.38-9.76,28.32-22.21,47.79-2.11,5.39-6.26,7.2-9.9,10.35-6.53,5.63-13.5,11-18.84,17.69C1759.48,940.32,1744.29,941.27,1727.73,942.9Z" transform="translate(-651.66 -536.68)"/><path d="M1264.27,1230.15c-3.91,3.22-7,6.17-10.51,8.56a68.55,68.55,0,0,0-23.87,28.73c-4.09,8.94-8.65,17.73-12,27-4.46,12.35,1.16,24.27,3.5,36.18.51,2.58,4.72,5.53,7.76,6.35,16.62,4.47,26-2.26,34.85-20.22,5.77-11.69,7.29-24.66,7.75-37.73.43-12.29,1.52-24.56,2.43-36.83a19.22,19.22,0,0,1,1.43-6.78c2.74-5.72,8.62-5.83,13.74-6.08.86,0,2.9,5.87,2.88,9-.15,23.81-.57,47.62-1.13,71.43-.21,8.83,5,14.62,10.25,20.64a44.48,44.48,0,0,1,3.71,5.9c-2.28,1.19-5,3.82-6.76,3.31-7-2-15.52-1.81-18.79-10.52-5.07,4.3-9.43,9.94-15.17,12.53-19.27,8.67-37.81,3.79-55.11-6.15-3.44-2-5.72-7.37-6.9-11.64-4.18-15.08-.83-29.38,5.8-43.18,3-6.26,5.3-12.88,8.51-19,6.34-12.14,13.57-23.58,26.13-30.54C1249.47,1227.33,1256.05,1225.38,1264.27,1230.15Z" transform="translate(-651.66 -536.68)"/><path d="M1315.38,1235c20.11-13.09,28.87-10.2,36,10.32,9.85-9.84,21.32-14.94,35.42-15.71,17.45-.95,27.66,17.43,24.68,30.52-2.9,12.75-4.44,26.3-10.07,37.78-4.09,8.34-3,15.67-3,23.56,0,2.76,1.78,5.47,2.51,8.27.63,2.41.92,4.91,1.36,7.36-2.88.41-5.93,1.64-8.61,1.1-14.1-2.86-20-12.9-16.09-27.57,2.63-9.92,6.49-19.54,8.68-29.54,2.3-10.52,7-20.82,3.74-32.15-3.53-12.41-11.93-16.27-21-7.41-7.34,7.14-13.08,16.57-17.52,25.94-9.59,20.25-12.35,41.95-9.84,64.23.88,7.75-1.19,9.71-8.68,7.64-.64-.18-1.21-.55-1.84-.76-13.95-4.68-14.51-5.24-11.06-19.13,3-12.19,6.87-24.18,10.08-36.34.92-3.48.93-7.2,1.22-10.83.31-4-.71-8.54.93-11.79,3.54-7,1.13-13.66.24-20.32-.94-7-2.53-7.31-9.91-4.89C1320.47,1236,1317.81,1235.1,1315.38,1235Z" transform="translate(-651.66 -536.68)"/><path d="M1540.11,1692.28c-6.32,2.71-12.88,5.65-19.54,8.34-5.91,2.39-11.82,4.7-14.25,11.34-2.13,5.83-6,4.17-9.46,2-4.67-3-5.74-7.67-2.24-10.77,4.87-4.32,10.59-7.67,15.61-11.84,8.39-7,16.79-14,24.7-21.48,11.78-11.18,23-22.95,34.77-34.16a54.3,54.3,0,0,1,11.95-8.23c14-7.48,28-15,42.38-21.78,7.53-3.56,15-7.46,24.46-4.8,5.6,1.57,12.25-1,18.42-.94,3.38,0,8.41.14,8,5.3-.37,4.58.58,10.34-5.31,12.86a24.76,24.76,0,0,1-5.59,2c-3.77.61-5,1.52-5.07,6.26-.15,7-7.56,7.75-13,9.93-15.26,6.14-31.82,6.81-47.37,11.58-10.4,3.19-21.28,5.91-30.63,11.18-11.16,6.28-21.14,14.77-31.19,22.84C1531.28,1686.27,1539.39,1687,1540.11,1692.28Z" transform="translate(-651.66 -536.68)"/><path d="M1595.84,1823.58c59.4-9.81,112.21-33.28,158.88-71.82,24-19.81,44.69-43.62,64.79-67.27,18.5-21.76,40.72-47.09,54.06-72.41,13.61-25.83,24-53.72,35.63-80.46a477.26,477.26,0,0,0,27.37-82.26c3.19-14,6.74-27.6,10.63-41.4,4-14.2,21.07-99,26-129.24,1.56-9.48,16.57-82.35,19.8-108.88,2.89-23.74,5.12-47.56,7.29-71.38,1.33-14.56,1.62-29.21,3.09-43.75,1.09-10.75,3.58-21.35,5-32.08q6.8-49.76,13.26-99.58c1.71-13.18,1.54-13.13-11.65-8.07-10.87,4.17-21.8,8.2-33.81,6.81-2-.23-4.12,0-5.84-.76-14.58-6.45-26.66-25.45-24.21-41.33,1.4-9.08,6.09-17.82,10.21-26.27,2.73-5.6,7.66-10.12,10.59-15.65,5.35-10.12,14.54-15,24.49-18.3,3.86-1.27,9.07.29,13.25,1.76,2.26.79,5.44,4.58,5,6.16-.72,2.7-3.91,6.66-6.14,6.71-15.84.35-23,12.41-30.42,22.91-5.87,8.29-11.83,17.83-6.52,29.31.76,1.65,0,3.95.18,5.93,1.06,14.12,10.94,20.23,23.56,13.62a53.46,53.46,0,0,0,16-13.14c13-15.84,22.57-33.24,23.37-54.71.26-6.92,2.89-14.85,7.12-20.18,3.34-4.21,10.74-5.32,16.49-7.38.94-.34,3.54,1.3,3.9,2.47,1.88,6.21,5.24,12.81,4.47,18.81-1.78,13.72-1.82,27.65-7.13,41.17-2.68,6.82-3.58,14.48-8.18,20.73a4.32,4.32,0,0,0-.86,2.79c1.34,10.38-3.59,19.31-6.23,28.81-1.2,4.32-.71,9.1-1.24,13.64-.34,2.87-1.27,5.67-1.71,8.53-1.2,7.75-2.46,15.49-3.36,23.28-.48,4.14.91,8.84-.57,12.47-4.92,12.07-7.18,24.58-8.33,37.42-.14,1.55-1.61,2.94-1.95,4.51-1.45,6.72-2.94,13.45-4,20.24-1.2,7.83-2.09,15.71-2.86,23.6-1.38,14.16-2.36,28.36-4,42.5-.66,5.84-3.78,15-4.49,20.22s0,22.78,0,35c5.32-2.84,10.67-6,16.24-8.62,11.51-5.52,23.41-9.62,36.47-8.82,6.63.41,12,2.31,15.33,9.05,4.84,9.74,11,18.82,15.84,28.55,2.27,4.54,4,10,3.87,15-.42,13.26-1.9,26.48-3.21,39.7a39.08,39.08,0,0,1-2.54,10.64c-5.43,13.45-4.95,26.36,2.75,38.83.17.28.47.65.41.89-2.75,10.62,6.15,16.52,9.94,24.47,3.39,7.12,2.07,10.4-5.59,12.23-7,1.68-13.78,1.08-19.84-3.51a26.47,26.47,0,0,0-6-3.22c-4.57-1.87-9.21-3.54-13.83-5.28,7.94-4.28-6.21-8.31-.17-12.64.25-.18,0-1.25-.2-1.8-4.93-11.65-4.39-20.17,1.64-31.64,1.83-3.47,3.63-7.2,4.27-11,3.35-19.91,11.69-38.82,11.54-59.43-.06-8.2-1.13-15.67-7-22.12-3.06-3.36-5-7.77-7.23-11.84-4-7.32-7.54-9.45-15.36-7-16.2,5-28.32,14.85-34.89,30.89-10.7,26.1-13.21,53.37-16,81.29-1.17,11.71-4.17,23.18-6.93,34.51-1.53,6.26-3.68,11.89-4.23,18-.7,7.86-1.62,10.63-3.41,18.34-1.41,6.09-2.86,26-5.76,39s-5.41,29.32-8.67,42c-6,23.18-14.09,62.16-19.17,76.67-2.11,6-9,30.54-10.86,36.92-2.94,10.22-7,18.74-10.47,28.55-10.12,28.93-20.24,55.84-41.39,79.47-6.47,7.23-8.63,15-14.91,22.1-8.86,10.07-19.68,19.36-29.18,29-20.2,20.41-42.71,40.4-61.06,62.18-8.5,10.09-19.67,14.59-29.1,22.22-13.73,11.12-26,20.21-41.91,28.84-32,17.33-63.05,30.35-99.09,37.2a223.67,223.67,0,0,1-43.52,4c-9.26-.08-18.39-4.68-27.75-6.06-9.2-1.36-18.67-.78-27.93-1.87a146.87,146.87,0,0,1-21-4.52c-11.25-3-22.58-5.94-33.48-10-5-1.86-8.89-6.62-13.66-9.43-2.86-1.69-6.49-2-9.67-3.29-.9-.35-1.39-1.75-2.08-2.64-3.11-4-6-8.23-12.1-3.87-.79.56-5.89-2.31-6-3.87-.88-9.26-12-10.22-14-18.28-8.21,3.57-7.9-4.57-11.1-8-4.7-5-8.59.21-11.24.88-5.7-9.7-11.37-18.88-16.55-28.34-2.66-4.86-4.37-10.24-6.65-15.32-7.33-16.28-12.54-32.57-10.83-51.21,1.78-19.46,4.39-38.24,17.74-53.2,8.32-9.33,17.6-18.22,27.84-25.31,17.69-12.25,37.26-21.31,57.5-28.79,7.11-2.63,13.68-2.66,20.27,2.35-2.9,2.31-5.41,5.33-8.61,6.67-13.12,5.49-22.76,15.58-33.51,24.24-4.81,3.87-10.32,6.93-14.78,11.14a164.55,164.55,0,0,0-16,17.53c-5.34,6.75-.64,14.57-.71,21.81,0,3.68-.42,4.38-3.07,6.28-2.94,2.1-5.47,4.81-4.77,9.89,1.08,7.84,4.57,18,8.9,24.79,2.63,4.12,7.16,8.15,4.52,14.54-.47,1.13,2.77,4.4,4.87,5.87,6.82,4.79,8.17,9.71,3.38,16.64,9-2.24,13.9,6.35,21.76,6.83.82.05,2.41,3.51,2.09,3.82-5.77,5.68.11,7,5.83,9.87-5.29.91-7.92-.59-12.33,0,5.92,6.28,9.66,12.33,17.78,13.52a14.59,14.59,0,0,1,8.59,4.49c3.22,4,4.9,4.08,8.39.24,3.31-3.64,7-.78,7.13,2.73.34,6.82,5.7,8.1,9.76,11.1,6.68,4.94,15.22,4.85,22.35,8.59a145.64,145.64,0,0,0,15.1,6.89c2.71,1,5.94,2,8.68,1.51,9.17-1.62,16.8,2.24,24.7,5.68,7.38,3.21,14.24,6.55,23.37,4.72,6.44-1.29,13.87,2.5,20.88,3.88C1590.11,1823.2,1593.12,1824,1595.84,1823.58Z" transform="translate(-651.66 -536.68)"/><path d="M1879.11,759.22c-1.37-.2-3,.64-4-1" transform="translate(-651.66 -536.68)"/><path d="M1811,690.18a26.66,26.66,0,0,1-4.83,16.91c-.82,1.18-1.05,2.7-.07,3.65a5.83,5.83,0,0,0,3.52,1.44c1.25.07,2.53-.64,3.81-1,3.92-1,4.78-.12,3.79,3.7-.08.31-.36.58-.44.89-.54,2.26,1.15,4.29,3,3.49,2.67-1.13,4.83-2.8,8.33-2.17a6.81,6.81,0,0,0,6.91-4.24,18.76,18.76,0,0,1,4.63-6.39c1.18-1.21,2.43-2.36,4.25-2.29,6.58.24,11.12-3.66,15.65-7.63a10.82,10.82,0,0,1,3.17-2.26,3.21,3.21,0,0,1,3.65.87,3.37,3.37,0,0,1,.48,3.7,6.29,6.29,0,0,1-3.45,3.44c-6.42,2.77-10.67,9-17.66,10.88-6.27,5.92-13.84,10.33-19.55,16.89-1.31,1.5-2.4,3.31-4,4.43a14.61,14.61,0,0,0-6.42,12,9,9,0,0,0,7.6,5.28,16.9,16.9,0,0,1,4.86,1c8.78,3.61,17.64,1.85,26.42.34,3.94-.68,7.85-1.84,11.83-1.44,4.18.42,7.77-1.56,11.7-2.12,4.37-.62,8.52-1.27,12.51,1.18,1.86,1.14,4.82.25,5.77,3.1-.25,1.7-1.58,2-2.9,2.08-2.66.19-5.33.19-8,.38a30.14,30.14,0,0,0-5.91.78c-1.55.43-3.32,1.25-3.58,3.07-.16,1.08.57,2.29.9,3.44-3.81.51-7.47.83-11,1.53a15.83,15.83,0,0,1-6.9.16,9,9,0,0,0-3-.34c-7.63.84-15.11-.71-22.65-1.22-5.17-.35-10.46,1-15.68,1.64-7.65,1-14,5.75-21.4,7.54-1.77.43-3.41,2.06-4.75,3.48-3.6,3.85-7.79,6.17-13.17,5.92a6.68,6.68,0,0,0-6,2.92,1.74,1.74,0,0,1-2.62-.16c-2.06-3-3.27,1-5.4.36-2.85-1.6.13-5.81-3.33-8-5.23-.21-9.17,2.65-12.44,7.3-1.81,2.57.36,5.62-1.17,7.62-4,5.17-2.58,9.92.25,14.78,2,3.4,2.4,6.83.23,10.74-1,.34-2.22.76-3.45,1.16-4.11,1.33-7.54.12-9.18-3.73-2.16-5.07-6.17-8.56-9.7-12.74,1-5,3.61-9,6.84-13,3.07-3.74,8.54-3.21,11.51-7-1.17-3.59-5.3-4.16-6.89-8.09-.32-3,1.53-7-1.07-10.72-1.39-2-.63-4.62.26-6.77,2.53-6.11,4.11-12.64,8.28-18.05a33.1,33.1,0,0,0,4.3-7.82c1.87-4.64,5.68-6.25,10.06-7.12a3.37,3.37,0,0,1,4,4.17,33.16,33.16,0,0,1-2.25,5.52c-3.55,6.77-7.42,13.36-10.07,20.6-.88,2.41-2.86,4.42-4.4,6.71.22,3,2.74,4.18,4.72,5.76.64-.22,1.4-.25,1.77-.64,1.58-1.71,3-3.53,4.54-5.32,2.44-2.92,3.86-6.23,3.44-10.1a20.55,20.55,0,0,1,3.28-14.3c2.33-3.38.66-7.19,1.64-10.41,1.22-4,.32-7-1.31-10.39-2.25-4.68-1.47-9.84-1.52-14.75a29.61,29.61,0,0,0-2.55-12.5c-3.5-7.65-3.83-16.1-5.24-24.26a23.3,23.3,0,0,0-2.85-8.37,17,17,0,0,1-2.57-7.45c-.55-10.11-4-19.48-7-28.93-1.22-3.8-2.54-7.44-3-11.48s-1.47-7.75-5.69-9.86a3.6,3.6,0,0,1-1.64-5.14c3-4.89.84-9.65-.3-14.34a58.58,58.58,0,0,0-3.65-9.28c-1.92-4.41-1.8-8.85-1.45-13.36,2.46,0,3.58.75,3.8,2.19,1.08,7.22,4.85,13.87,4.46,21.41a5.75,5.75,0,0,0,.74,2.87c5.13,9.45,5.82,20.32,9.73,30.19,2,5.16,2.49,11,3.59,16.5.26,1.29,0,2.7.4,4,3.58,12.79,7,25.62,10.93,38.31,2,6.38,4.06,12.6,4.45,19.37.26,4.6,1.56,9.15,2.45,13.7a5.16,5.16,0,0,0,1,2.75c4.14,3.66,5.17,9.19,7.77,13.25,2.42,1,3.58-.33,4.83-1.39,5.32-4.53,10.71-9,15.92-13.64a27.29,27.29,0,0,0,6.21-7.75,14.55,14.55,0,0,1,7.89-7.28Z" transform="translate(-651.66 -536.68)"/><path d="M1632.12,917.05c1.91-.14,3.19.27,4.07,1.32a4.14,4.14,0,0,1,.72,3.73,17.33,17.33,0,0,1-6.86,10.61c-5.48,3.71-7.53,8.84-8.47,14.88-.2,1.28-.57,2.53-.92,4.08a47.26,47.26,0,0,1-4.39,2.14c-2.31.85-4.65.85-6.32-1.25s-1.82-6.31-.28-8.4a18.8,18.8,0,0,1,7.39-6.48c4.15-1.77,6-5.15,7.1-8.95C1625.62,923.73,1628.7,920.12,1632.12,917.05Z" transform="translate(-651.66 -536.68)"/><path d="M1746.58,845.24c2.74-.82,5.27.22,7.69,1.09,3.71,1.33,6,3.84,5.79,8.2a70.2,70.2,0,0,0,.58,8.23c-3.56,2.19-7.56,1.49-11.3,1a6.82,6.82,0,0,1-5.58-8.06C1744.41,852.16,1744.35,848.39,1746.58,845.24Z" transform="translate(-651.66 -536.68)"/><path d="M1763.87,854c1.08-3,3.16-3.64,4.56-5,5.44-5.22,8-1.59,8.67,3.92a29.56,29.56,0,0,1-.28,8.8c-.79,4.26-4.69,5.37-8.12,2.55S1764.22,858,1763.87,854Z" transform="translate(-651.66 -536.68)"/><path d="M1683.72,850.41c1-3.62,2.27-6.24,4.55-8.23a4.94,4.94,0,0,1,4.52-1.21,2.16,2.16,0,0,1,1.88,1.89c.33,4.09-3.78,8.9-8.14,9.35C1685.81,852.29,1685,851.25,1683.72,850.41Z" transform="translate(-651.66 -536.68)"/><path d="M1938.68,686.1c.24-.25.48-.7.7-.69,5.2.26,10.4.49,15.58.95.65.06,1.63,1.35,1.66,2.09s-1,2.19-1.5,2.19c-5.52,0-11.11.09-16.1-2.86C1938.68,687.59,1938.78,686.66,1938.68,686.1Z" transform="translate(-651.66 -536.68)"/><path d="M1761.87,556.61c3.67,6.58,4.21,14.75,2.32,27.51-1.72-1.57-1.19-3.65-1-5.46C1763.82,571.63,1761.52,564.7,1761.87,556.61Z" transform="translate(-651.66 -536.68)"/><path d="M1811.18,690.3c.54-2.24,1-4.49,1.65-6.7a5.61,5.61,0,0,1,1.32-2.58c1.42-1.29,2.89-2.78,5.14-2.1,1.38.41,1.07,3.06-.73,5.08-2.17,2.45-4.13,5.19-7.52,6.18Z" transform="translate(-651.66 -536.68)"/><path d="M1766.16,609c-2.51-5.3-3.56-9.85-1.93-14.74C1764.94,598.84,1767.95,603.14,1766.16,609Z" transform="translate(-651.66 -536.68)"/><path d="M1755.2,618.13a4,4,0,0,1-1.79-3.22c0-1,.12-2,1.44-1.9.32,0,.8,1,.77,1.44a34.36,34.36,0,0,1-.56,3.79Z" transform="translate(-651.66 -536.68)"/><path d="M1755.07,618.23c1.14,1.08,2.07,2.21,1,3.94-1.26-1.18-.68-2.71-.92-4Z" transform="translate(-651.66 -536.68)"/><path d="M1870.91,536.68c.51.22,1.28.33,1.46.71s-.28,1-.46,1.53a5,5,0,0,1-1.49-.81C1869.87,537.5,1870.13,536.95,1870.91,536.68Z" transform="translate(-651.66 -536.68)"/><path d="M1739.11,599.22c.67,1.67,2.13,3.49,1.83,5-.55,2.73,1.89,3.91,2.17,6" transform="translate(-651.66 -536.68)"/><path d="M1747.11,627.22c1.64,5.59,2.11,11.46,4,17" transform="translate(-651.66 -536.68)"/><path d="M1753.11,655.22c1.16,1.57,3.31,2.32,3.08,5a20.79,20.79,0,0,0,2.92,12" transform="translate(-651.66 -536.68)"/><path d="M1763.11,691.22c1.64,1,.77,2.64,1,4,.3,1.67.66,3.33,1,5" transform="translate(-651.66 -536.68)"/><path d="M1815.11,685.22a24.56,24.56,0,0,0-6,9" transform="translate(-651.66 -536.68)"/><path d="M1728.11,555.22l1,3" transform="translate(-651.66 -536.68)"/><path d="M1733.11,577.22c2.23,1.89,1.06,4.79,1.64,7.09s2.08,3.78,2.36,5.91" transform="translate(-651.66 -536.68)"/><path d="M1762.11,557.22c1.1,4.27,2.18,8.51,2,13-.16,5,0,10,0,15" transform="translate(-651.66 -536.68)"/><path d="M1764.11,593.22c0,3.36-.7,7,1.14,9.91,1.38,2.16.37,4.12.86,6.09" transform="translate(-651.66 -536.68)"/><path d="M1756.11,613.22c-3.16.09-2.39,3.38-1.86,3.85,2,1.81,2,3.89,1.86,6.15" transform="translate(-651.66 -536.68)"/><path d="M1870.11,537.22q2.14-.14,2,2" transform="translate(-651.66 -536.68)"/></svg>
